<?xml version="1.0" encoding="UTF-8" standalone="no"?>
<!-- Created with Inkscape (http://www.inkscape.org/) -->

<svg
   xmlns:dc="http://purl.org/dc/elements/1.1/"
   xmlns:cc="http://creativecommons.org/ns#"
   xmlns:rdf="http://www.w3.org/1999/02/22-rdf-syntax-ns#"
   xmlns:svg="http://www.w3.org/2000/svg"
   xmlns="http://www.w3.org/2000/svg"
   xmlns:sodipodi="http://sodipodi.sourceforge.net/DTD/sodipodi-0.dtd"
   xmlns:inkscape="http://www.inkscape.org/namespaces/inkscape"
   width="210mm"
   height="297mm"
   id="svg2"
   version="1.1"
   inkscape:version="0.48.2 r9819"
   sodipodi:docname="Neues Dokument 1">
  <defs
     id="defs4" />
  <sodipodi:namedview
     id="base"
     pagecolor="#ffffff"
     bordercolor="#666666"
     borderopacity="1.0"
     inkscape:pageopacity="0.0"
     inkscape:pageshadow="2"
     inkscape:zoom="0.35"
     inkscape:cx="313.14819"
     inkscape:cy="564.77778"
     inkscape:document-units="px"
     inkscape:current-layer="layer1"
     showgrid="false"
     inkscape:window-width="505"
     inkscape:window-height="455"
     inkscape:window-x="2073"
     inkscape:window-y="354"
     inkscape:window-maximized="1" />
  <metadata
     id="metadata7">
    <rdf:RDF>
      <cc:Work
         rdf:about="">
        <dc:format>image/svg+xml</dc:format>
        <dc:type
           rdf:resource="http://purl.org/dc/dcmitype/StillImage" />
        <dc:title></dc:title>
      </cc:Work>
    </rdf:RDF>
  </metadata>
  <g
     inkscape:label="Ebene 1"
     inkscape:groupmode="layer"
     id="layer1">
    <g
       style="font-size:144px;font-style:normal;font-variant:normal;font-weight:normal;font-stretch:normal;line-height:125%;letter-spacing:0px;word-spacing:0px;fill:#000000;fill-opacity:1;stroke:none;font-family:Impact;-inkscape-font-specification:Impact"
       id="text2985">
      <path
         d="m 125.30318,408.09387 0,13.78125 -22.35937,0 c -5.390671,-10e-6 -9.187543,-0.41017 -11.390625,-1.23047 -2.203163,-0.82032 -3.691443,-2.05079 -4.464844,-3.6914 -0.773472,-1.64064 -1.160191,-4.59376 -1.160156,-8.85938 -6.703153,-0.1875 -12.468772,-1.94531 -17.296875,-5.27344 -4.828138,-3.32811 -8.015634,-7.55858 -9.5625,-12.6914 -1.546881,-5.13279 -2.320318,-12.80856 -2.320313,-23.02735 l 0,-35.22656 c -5e-6,-7.73429 0.457026,-13.62881 1.371094,-17.68359 0.914055,-4.05459 2.800772,-7.8749 5.660156,-11.46094 2.85936,-3.58583 6.539044,-6.29286 11.039063,-8.12109 4.499972,-1.82801 9.492154,-2.74207 14.976562,-2.74219 6.60933,1.2e-4 12.503858,1.12511 17.683598,3.375 5.17962,2.25011 9.04681,5.10948 11.60156,8.57812 2.55462,3.46886 4.21868,7.06651 4.99219,10.79297 0.77336,3.72666 1.16008,9.26962 1.16015,16.62891 l 0,36.98437 c -7e-5,10.12503 -0.49226,16.99221 -1.47656,20.60157 -0.98445,3.60939 -2.87116,6.48048 -5.66016,8.61328 -2.78912,2.13282 -6.50396,3.76172 -11.14453,4.88672 0.14057,2.53125 0.66791,4.125 1.58203,4.78125 0.91401,0.65625 3.08197,0.98437 6.50391,0.98437 z M 95.63131,323.50793 c -1.894025,-4.94657 -0.293013,-8.6835 -0.878907,-10.16015 -0.58598,-1.47647 -1.79301,-2.21475 -3.621093,-2.21485 -1.546913,1e-4 -2.730506,0.59776 -3.550782,1.79297 -0.820347,1.19541 -5.24054,0.7753 -6.281231,6.54142 l -3.030457,16.79076 c -1.173921,6.50431 8.350716,51.09363 8.889813,52.64048 0.539027,1.54689 1.792932,2.32033 3.761719,2.32031 2.015584,2e-5 3.304645,-0.89061 3.867188,-2.67187 0.562456,-1.78123 19.40311,-16.56813 17.00619,-22.8281 z"
         id="path2990"
         inkscape:connector-curvature="0"
         sodipodi:nodetypes="ccssccsssssccccccssccccscscccsscccss" />
      <path
         d="m 203.63131,294.25793 0,76.07813 c -7e-5,8.62503 -0.28132,14.68362 -0.84375,18.17578 -0.56257,3.4922 -2.22663,7.07814 -4.99219,10.75781 -2.76569,3.6797 -6.41022,6.46876 -10.93359,8.36719 -4.52349,1.89844 -9.85552,2.84765 -15.9961,2.84766 -6.7969,-1e-5 -12.7969,-1.125 -18,-3.375 -5.20314,-2.25 -9.09376,-5.17968 -11.67187,-8.78907 -2.57813,-3.60936 -4.10157,-7.41795 -4.57031,-11.42578 -0.46876,-4.00778 -0.70313,-12.43356 -0.70313,-25.27734 l 0,-67.35938 29.60156,0 -6.06092,73.23755 c -0.40979,4.95184 6.33042,20.26638 6.86952,21.64917 0.53902,1.38283 1.62887,2.07424 3.26953,2.07422 1.87496,2e-5 3.08199,-0.7617 3.62109,-2.28515 0.53902,-1.52342 7.80097,-52.67525 6.86952,-58.27014 l -6.06092,-36.40565 z"
         id="path2992"
         inkscape:connector-curvature="0"
         sodipodi:nodetypes="csccssssssccscccscc" />
      <path
         d="m 244.69381,294.25793 2.71636,55.14788 -7.76712,34.23539 5.05076,24.45267 -29.60156,0 5.05076,-62.83847 -5.05076,-50.99747 z"
         id="path2994"
         inkscape:connector-curvature="0"
         sodipodi:nodetypes="cccccccc" />
      <path
         d="m 306.21725,294.25793 0,22.78125 -14.57685,28.44791 -7.50128,39.82553 22.07813,0 0,22.78125 -54.5625,0 0,-16.52344 17.41476,-42.47041 15.46802,-27.01008 -6.9837,-6.72496 -23.22721,1.6742 0,-22.78125 z"
         id="path2996"
         inkscape:connector-curvature="0"
         sodipodi:nodetypes="cccccccccccccc" />
      <path
         d="m 338.64582,294.61507 -6.5301,49.63018 -1.71583,39.22347 11.81736,24.62515 -29.25,0 0,-113.83594 z"
         id="path2998"
         inkscape:connector-curvature="0"
         sodipodi:nodetypes="ccccccc" />
      <path
         d="m 381.59225,294.25793 0,14.83594 -29.25,0 5.05076,-8.28518 -5.05076,-6.55076 z m 0,20.53125 -7.07107,20.3647 7.07107,72.93999 -29.25,0 11.11168,-48.69633 -11.11168,-44.60836 z"
         id="path3000"
         inkscape:connector-curvature="0"
         sodipodi:nodetypes="ccccccccccccc" />
      <path
         d="m 420.61568,314.78918 -3.2701,1.7596 c 2.06246,-3.42179 7.35991,0.83034 10.33651,-0.88069 2.97652,-1.71084 6.41011,-2.56631 10.30078,-2.56641 4.87495,1e-4 8.85932,1.14854 11.95313,3.44532 3.09368,2.29696 5.08587,5.19149 5.97656,8.68359 0.89055,3.49227 1.33587,9.31648 1.33594,17.47266 l 0,65.39062 -28.40625,0 9.87784,-27.29083 -0.78647,-35.30605 c -0.14301,-6.42021 -9.30235,-12.35617 -9.72419,-13.76249 -0.42191,-1.40618 -1.59379,-2.1093 -3.51562,-2.10938 -2.01566,8e-5 -3.28129,0.80867 -3.79688,2.42578 -0.51565,1.61727 -0.77347,5.94148 -0.77343,12.97266 l 0,3.2623 -6.06092,35.35534 6.06092,24.45267 -28.40625,0 0,-93.30469 z"
         id="path3002"
         inkscape:connector-curvature="0"
         sodipodi:nodetypes="ccccccscccsccsscccccc" />
      <path
         d="m 531.63912,314.78918 -4.46429,55.073 4.46429,16.78638 c 2.49384,9.37719 -0.22272,15.97266 -0.66797,18.80859 -0.44538,2.83594 -2.02741,5.83594 -4.74609,9 -2.71881,3.16406 -6.50396,5.57812 -11.35547,7.24219 -4.85161,1.66405 -10.95707,2.49608 -18.31641,2.49609 -9.0469,-10e-6 -16.31251,-1.53517 -21.79687,-4.60546 -5.48438,-3.07033 -8.32032,-9.10548 -8.50781,-18.10547 l 27.5625,0 c -3e-5,4.125 1.49996,6.1875 4.5,6.1875 2.15621,0 3.58589,-0.63281 4.28906,-1.89844 0.70308,-1.26562 19.7195,-0.54123 10.14606,-7.94531 l -9.09137,-7.03125 c -2.43754,2.20314 -5.00395,3.8672 -7.69922,4.99218 -2.69535,1.12502 -5.51956,1.68752 -8.47266,1.6875 -5.10939,2e-5 -9.31642,-1.03123 -12.62109,-3.09375 -3.3047,-2.06248 -5.56642,-4.76951 -6.78516,-8.12109 -1.21875,-3.35154 -1.82813,-8.12106 -1.82812,-14.30859 l 0,-33.89063 c -10e-6,-8.85929 1.59374,-15.23429 4.78125,-19.125 3.18748,-3.89053 8.03904,-5.83584 14.55468,-5.83594 3.56248,1e-4 6.80857,0.72666 9.73829,2.17969 2.92965,1.45322 5.54293,3.6329 7.83984,6.53906 l 2.03906,-7.03125 z m -23.47656,19.75 c -1.59074,-3.95784 -5.24614,-1.98429 -5.73828,-3.15625 -0.49223,-1.17179 -1.58207,-1.75773 -3.26953,-1.75781 -4.44382,1.74016 -5.91277,1.87168 -5.92857,2.7712 l -6.42857,22.07367 c -1.16653,4.0055 8.11492,23.30751 8.63057,24.54966 0.5156,1.24222 1.59372,1.86331 3.23438,1.86328 1.87496,3e-5 3.09371,-0.74997 3.65625,-2.25 0.32482,-0.86622 4.12728,-1.82986 4.26453,-3.96235 0.10042,-1.56018 -1.0888,-11.11492 -0.56364,-13.19725 l 5,-19.82543 z"
         id="path3004"
         inkscape:connector-curvature="0"
         sodipodi:nodetypes="ccsccsssccscscsccsssccccccscccscccsscs" />
    </g>
  </g>
</svg>
